<svg xmlns="http://www.w3.org/2000/svg" xmlns:xlink="http://www.w3.org/1999/xlink" viewBox="0 0 697 2442.77"><defs><style>.cls-1{fill:none;}.cls-2{clip-path:url(#clip-path);}</style><clipPath id="clip-path" transform="translate(0 348.26)"><path class="cls-1" d="M697,100.46v1289.3a100.46,100.46,0,0,1-100.46,100.46H100.46A100.48,100.48,0,0,1,0,1389.76V100.46A100.48,100.48,0,0,1,100.46,0h80.87V.25a54.16,54.16,0,0,0,54.14,54.18H461.53A54.16,54.16,0,0,0,515.68.26h0V0h80.87A100.46,100.46,0,0,1,697,100.46Z"/></clipPath></defs><g id="Layer_2" data-name="Layer 2"><g id="Layer_1-2" data-name="Layer 1"><g class="cls-2"><image width="1280" height="4486" transform="translate(0 0) scale(0.54)" xlink:href="./mobile_mask.jpg"/></g></g></g></svg>