<svg xmlns="http://www.w3.org/2000/svg" xmlns:xlink="http://www.w3.org/1999/xlink" viewBox="0 0 725.25 4493.54"><defs><style>.cls-1{fill:none;}.cls-2{isolation:isolate;}.cls-3{clip-path:url(#clip-path);}.cls-4{mix-blend-mode:screen;}</style><clipPath id="clip-path" transform="translate(12.91 318.64)"><path class="cls-1" d="M697,100.46v1289.3a100.46,100.46,0,0,1-100.46,100.46H100.46A100.47,100.47,0,0,1,0,1389.76V100.46A100.47,100.47,0,0,1,100.46,0h80.87V.25a54.16,54.16,0,0,0,54.15,54.18H461.53A54.16,54.16,0,0,0,515.68.25V0h80.87A100.46,100.46,0,0,1,697,100.46Z"/></clipPath></defs><g class="cls-2"><g id="Layer_2" data-name="Layer 2"><g id="Layer_1-2" data-name="Layer 1"><g class="cls-3"><image width="1280" height="8252" transform="translate(12.91) scale(0.54)" xlink:href="Mobile.jpg"/></g><g class="cls-4"><g class="cls-3"><image width="713" height="1512" transform="matrix(1, 0.01, -0.01, 1, 9.66, 299.96)" xlink:href="C:%5CUsers%5CPaulina%5CDownloads%5CAdjusment.png"/></g></g></g></g></g></svg>