<svg width="132" height="71" viewBox="0 0 132 71" fill="none" xmlns="http://www.w3.org/2000/svg">
<path id="Ellipse 1" d="M74.5238 60.596C56.8554 66.5833 39.9237 68.9482 26.8724 67.9997C20.3424 67.5251 14.8852 66.2284 10.8118 64.2231C6.74819 62.2227 4.19717 59.5927 3.1411 56.4763C2.08504 53.3599 2.51171 49.7209 4.52204 45.6622C6.53721 41.5937 10.0818 37.2465 14.9781 32.8999C24.7641 24.2125 39.6453 15.7969 57.3138 9.80959C74.9822 3.82228 91.9138 1.4574 104.965 2.4059C111.495 2.88047 116.952 4.17723 121.026 6.18249C125.089 8.18293 127.64 10.8129 128.696 13.9293C129.753 17.0457 129.326 20.6847 127.316 24.7434C125.3 28.8119 121.756 33.1591 116.859 37.5057C107.073 46.1931 92.1922 54.6087 74.5238 60.596Z" stroke="url(#paint0_angular_336_77)" stroke-width="4"/>
<defs>
<radialGradient id="paint0_angular_336_77" cx="0" cy="0" r="1" gradientUnits="userSpaceOnUse" gradientTransform="translate(65.9188 35.2028) rotate(161.28) scale(68.2842 24.3775)">
<stop offset="0.239583" stop-color="white" stop-opacity="0.49"/>
<stop offset="0.582721" stop-color="white" stop-opacity="0"/>
<stop offset="0.679053" stop-color="white" stop-opacity="0"/>
<stop offset="0.732318" stop-color="white" stop-opacity="0.76"/>
<stop offset="1" stop-color="white"/>
</radialGradient>
</defs>
</svg>
